TITLE ""
FILE "P1Q_t_0778-0787.mp3" MP3
  TRACK 01 AUDIO
    TITLE "P1Q_t_0778-0787_01"
    INDEX 01 00:00:00
  TRACK 02 AUDIO
    TITLE "P1Q_t_0778-0787_02"
    INDEX 01 00:01:18
  TRACK 03 AUDIO
    TITLE "P1Q_t_0778-0787_03"
    INDEX 01 00:01:41
  TRACK 04 AUDIO
    TITLE "P1Q_t_0778-0787_04"
    INDEX 01 00:04:43
  TRACK 05 AUDIO
    TITLE "P1Q_t_0778-0787_05"
    INDEX 01 00:04:65
  TRACK 06 AUDIO
    TITLE "P1Q_t_0778-0787_06"
    INDEX 01 00:08:74
  TRACK 07 AUDIO
    TITLE "P1Q_t_0778-0787_07"
    INDEX 01 00:09:45
  TRACK 08 AUDIO
    TITLE "P1Q_t_0778-0787_08"
    INDEX 01 00:10:67
  TRACK 09 AUDIO
    TITLE "P1Q_t_0778-0787_09"
    INDEX 01 00:11:12
  TRACK 10 AUDIO
    TITLE "P1Q_t_0778-0787_10"
    INDEX 01 00:13:60
  TRACK 11 AUDIO
    TITLE "P1Q_t_0778-0787_11"
    INDEX 01 00:14:07
  TRACK 12 AUDIO
    TITLE "P1Q_t_0778-0787_12"
    INDEX 01 00:18:75
  TRACK 13 AUDIO
    TITLE "P1Q_t_0778-0787_13"
    INDEX 01 00:19:45
  TRACK 14 AUDIO
    TITLE "P1Q_t_0778-0787_14"
    INDEX 01 00:20:54
  TRACK 15 AUDIO
    TITLE "P1Q_t_0778-0787_15"
    INDEX 01 00:21:03
  TRACK 16 AUDIO
    TITLE "P1Q_t_0778-0787_16"
    INDEX 01 00:24:01
  TRACK 17 AUDIO
    TITLE "P1Q_t_0778-0787_17"
    INDEX 01 00:24:21
  TRACK 18 AUDIO
    TITLE "P1Q_t_0778-0787_18"
    INDEX 01 00:29:10
  TRACK 19 AUDIO
    TITLE "P1Q_t_0778-0787_19"
    INDEX 01 00:29:59
  TRACK 20 AUDIO
    TITLE "P1Q_t_0778-0787_20"
    INDEX 01 00:30:74
  TRACK 21 AUDIO
    TITLE "P1Q_t_0778-0787_21"
    INDEX 01 00:31:23
  TRACK 22 AUDIO
    TITLE "P1Q_t_0778-0787_22"
    INDEX 01 00:34:66
  TRACK 23 AUDIO
    TITLE "P1Q_t_0778-0787_23"
    INDEX 01 00:35:13
  TRACK 24 AUDIO
    TITLE "P1Q_t_0778-0787_24"
    INDEX 01 00:40:43
  TRACK 25 AUDIO
    TITLE "P1Q_t_0778-0787_25"
    INDEX 01 00:41:15
  TRACK 26 AUDIO
    TITLE "P1Q_t_0778-0787_26"
    INDEX 01 00:42:36
  TRACK 27 AUDIO
    TITLE "P1Q_t_0778-0787_27"
    INDEX 01 00:42:58
  TRACK 28 AUDIO
    TITLE "P1Q_t_0778-0787_28"
    INDEX 01 00:44:25
  TRACK 29 AUDIO
    TITLE "P1Q_t_0778-0787_29"
    INDEX 01 00:44:47
  TRACK 30 AUDIO
    TITLE "P1Q_t_0778-0787_30"
    INDEX 01 00:49:09
  TRACK 31 AUDIO
    TITLE "P1Q_t_0778-0787_31"
    INDEX 01 00:49:56
  TRACK 32 AUDIO
    TITLE "P1Q_t_0778-0787_32"
    INDEX 01 00:50:73
  TRACK 33 AUDIO
    TITLE "P1Q_t_0778-0787_33"
    INDEX 01 00:51:19
  TRACK 34 AUDIO
    TITLE "P1Q_t_0778-0787_34"
    INDEX 01 00:54:37
  TRACK 35 AUDIO
    TITLE "P1Q_t_0778-0787_35"
    INDEX 01 00:54:59
  TRACK 36 AUDIO
    TITLE "P1Q_t_0778-0787_36"
    INDEX 01 00:59:48
  TRACK 37 AUDIO
    TITLE "P1Q_t_0778-0787_37"
    INDEX 01 01:00:20
  TRACK 38 AUDIO
    TITLE "P1Q_t_0778-0787_38"
    INDEX 01 01:01:24
  TRACK 39 AUDIO
    TITLE "P1Q_t_0778-0787_39"
    INDEX 01 01:01:47
  TRACK 40 AUDIO
    TITLE "P1Q_t_0778-0787_40"
    INDEX 01 01:03:66
  TRACK 41 AUDIO
    TITLE "P1Q_t_0778-0787_41"
    INDEX 01 01:04:10
  TRACK 42 AUDIO
    TITLE "P1Q_t_0778-0787_42"
    INDEX 01 01:08:06
  TRACK 43 AUDIO
    TITLE "P1Q_t_0778-0787_43"
    INDEX 01 01:08:51
  TRACK 44 AUDIO
    TITLE "P1Q_t_0778-0787_44"
    INDEX 01 01:10:03
  TRACK 45 AUDIO
    TITLE "P1Q_t_0778-0787_45"
    INDEX 01 01:10:25
  TRACK 46 AUDIO
    TITLE "P1Q_t_0778-0787_46"
    INDEX 01 01:11:42
  TRACK 47 AUDIO
    TITLE "P1Q_t_0778-0787_47"
    INDEX 01 01:11:61
  TRACK 48 AUDIO
    TITLE "P1Q_t_0778-0787_48"
    INDEX 01 01:15:43
  TRACK 49 AUDIO
    TITLE "P1Q_t_0778-0787_49"
    INDEX 01 01:16:13
  TRACK 50 AUDIO
    TITLE "P1Q_t_0778-0787_50"
    INDEX 01 01:17:21
  TRACK 51 AUDIO
    TITLE "P1Q_t_0778-0787_51"
    INDEX 01 01:17:42
  TRACK 52 AUDIO
    TITLE "P1Q_t_0778-0787_52"
    INDEX 01 01:21:13
  TRACK 53 AUDIO
    TITLE "P1Q_t_0778-0787_53"
    INDEX 01 01:21:34
  TRACK 54 AUDIO
    TITLE "P1Q_t_0778-0787_54"
    INDEX 01 01:25:24
  TRACK 55 AUDIO
    TITLE "P1Q_t_0778-0787_55"
    INDEX 01 01:25:73
  TRACK 56 AUDIO
    TITLE "P1Q_t_0778-0787_56"
    INDEX 01 01:27:05
  TRACK 57 AUDIO
    TITLE "P1Q_t_0778-0787_57"
    INDEX 01 01:27:27
  TRACK 58 AUDIO
    TITLE "P1Q_t_0778-0787_58"
    INDEX 01 01:30:47
  TRACK 59 AUDIO
    TITLE "P1Q_t_0778-0787_59"
    INDEX 01 01:30:66
  TRACK 60 AUDIO
    TITLE "P1Q_t_0778-0787_60"
    INDEX 01 01:35:03
